<?xml version="1.0" encoding="utf-8"?>
<!-- Generator: Adobe Illustrator 22.1.0, SVG Export Plug-In . SVG Version: 6.00 Build 0)  -->
<svg version="1.1" id="Layer_1" xmlns="http://www.w3.org/2000/svg" xmlns:xlink="http://www.w3.org/1999/xlink" x="0px" y="0px"
	 viewBox="0 0 200 200" style="enable-background:new 0 0 200 200;" xml:space="preserve">
<style type="text/css">
	.st0{fill:#FFFFFF;}
</style>
<g>
	<circle class="st0" cx="100" cy="100" r="90.7"/>
	<path d="M140.4,117.7c-2.2-1.1-13.1-6.5-15.1-7.2c-2-0.7-3.5-1.1-5,1.1c-1.5,2.2-5.7,7.2-7,8.7c-1.3,1.5-2.6,1.7-4.8,0.6
		c-2.2-1.1-9.3-3.4-17.8-11c-6.6-5.9-11-13.1-12.3-15.3c-1.3-2.2-0.1-3.4,1-4.5c1-1,2.2-2.6,3.3-3.9c1.1-1.3,1.5-2.2,2.2-3.7
		c0.7-1.5,0.4-2.8-0.2-3.9c-0.6-1.1-4.8-12-6.8-16.4c-1.7-3.7-3.4-3.8-5-3.8c-1.3-0.1-2.8-0.1-4.2-0.1c-1.5,0-3.9,0.6-5.9,2.8
		c-2,2.2-7.7,7.6-7.7,18.4s7.9,21.4,9,22.9c1.1,1.5,15.3,24.5,37.7,33.4c18.7,7.4,22.5,5.9,26.5,5.5c4.1-0.4,13.1-5.3,14.9-10.5
		c1.8-5.2,1.8-9.6,1.3-10.5C144,119.4,142.6,118.8,140.4,117.7z"/>
	<path d="M100,0C44.9,0,0,44.9,0,100s44.9,100,100,100s100-44.9,100-100S155.1,0,100,0z M100,190.7C50,190.7,9.3,150,9.3,100
		S50,9.3,100,9.3S190.7,50,190.7,100S150,190.7,100,190.7z"/>
</g>
</svg>
