<?xml version="1.0" encoding="utf-8"?>
<!-- Generator: Adobe Illustrator 22.1.0, SVG Export Plug-In . SVG Version: 6.00 Build 0)  -->
<svg version="1.1" id="Layer_1" xmlns="http://www.w3.org/2000/svg" xmlns:xlink="http://www.w3.org/1999/xlink" x="0px" y="0px"
	 viewBox="0 0 200 200" style="enable-background:new 0 0 200 200;" xml:space="preserve">
<style type="text/css">
	.st0{fill:#FFFFFF;}
</style>
<g>
	<path class="st0" d="M100,9.3C50,9.3,9.3,50,9.3,100c0,50,40.7,90.7,90.7,90.7s90.7-40.7,90.7-90.7C190.7,50,150,9.3,100,9.3z"/>
	<path d="M100,0C44.9,0,0,44.9,0,100s44.9,100,100,100s100-44.9,100-100S155.1,0,100,0z M100,190.7C50,190.7,9.3,150,9.3,100
		C9.3,50,50,9.3,100,9.3S190.7,50,190.7,100C190.7,150,150,190.7,100,190.7z"/>
	<path d="M100,45.1c-30.3,0-54.9,24.6-54.9,54.9l0,0c0,9.7,2.5,19.1,7.3,27.4l-7.8,28.4l29.1-7.6c8,4.4,17,6.7,26.2,6.7h0
		c30.3,0,54.9-24.6,54.9-54.9c0-14.7-5.7-28.5-16.1-38.8C128.5,50.8,114.7,45.1,100,45.1z M100,145.6L100,145.6
		c-8.2,0-16.2-2.2-23.2-6.4l-1.7-1l-17.3,4.5l4.6-16.8l-1.1-1.7c-4.6-7.3-7-15.7-7-24.3c0-25.2,20.5-45.6,45.7-45.6
		c12.2,0,23.6,4.8,32.3,13.4c8.6,8.6,13.4,20.1,13.4,32.3C145.7,125.2,125.2,145.6,100,145.6z"/>
	<path d="M125.1,111.4c-1.4-0.7-8.1-4-9.4-4.5c-1.3-0.5-2.2-0.7-3.1,0.7c-0.9,1.4-3.5,4.5-4.3,5.4c-0.8,0.9-1.6,1-3,0.3
		c-1.4-0.7-5.8-2.1-11-6.8c-4.1-3.6-6.8-8.1-7.6-9.5c-0.8-1.4-0.1-2.1,0.6-2.8c0.6-0.6,1.4-1.6,2.1-2.4c0.7-0.8,0.9-1.4,1.4-2.3
		c0.5-0.9,0.2-1.7-0.1-2.4c-0.3-0.7-3-7.5-4.2-10.2h0c-1-2.3-2.1-2.3-3.1-2.4c-0.8,0-1.7,0-2.6,0c-0.9,0-2.4,0.3-3.7,1.7
		c-1.3,1.4-4.8,4.7-4.8,11.4c0,6.8,4.9,13.3,5.6,14.2c0.7,0.9,9.5,15.2,23.4,20.7c11.6,4.6,13.9,3.7,16.5,3.4
		c2.5-0.2,8.1-3.3,9.3-6.5c1.1-3.2,1.1-5.9,0.8-6.5C127.3,112.5,126.4,112.1,125.1,111.4z"/>
</g>
</svg>
